<?xml version="1.0" encoding="UTF-8" standalone="no"?>
<!-- Created with Inkscape (http://www.inkscape.org/) -->

<svg
   width="52.881264mm"
   height="29.467583mm"
   viewBox="0 0 52.881264 29.467583"
   version="1.1"
   id="svg1"
   inkscape:version="1.3.2 (091e20ef0f, 2023-11-25, custom)"
   sodipodi:docname="FFS-Logo_mit_Slogan.svg"
   xmlns:inkscape="http://www.inkscape.org/namespaces/inkscape"
   xmlns:sodipodi="http://sodipodi.sourceforge.net/DTD/sodipodi-0.dtd"
   xmlns="http://www.w3.org/2000/svg"
   xmlns:svg="http://www.w3.org/2000/svg">
  <sodipodi:namedview
     id="namedview1"
     pagecolor="#ffffff"
     bordercolor="#000000"
     borderopacity="0.25"
     inkscape:showpageshadow="2"
     inkscape:pageopacity="0.0"
     inkscape:pagecheckerboard="0"
     inkscape:deskcolor="#d1d1d1"
     inkscape:document-units="mm"
     inkscape:zoom="2.9329456"
     inkscape:cx="20.116295"
     inkscape:cy="105.35484"
     inkscape:window-width="2560"
     inkscape:window-height="1368"
     inkscape:window-x="2560"
     inkscape:window-y="116"
     inkscape:window-maximized="1"
     inkscape:current-layer="layer1" />
  <defs
     id="defs1">
    <clipPath
       clipPathUnits="userSpaceOnUse"
       id="clipPath160">
      <path
         d="M 0,0 H 851 V 604 H 0 Z"
         id="path160" />
    </clipPath>
    <clipPath
       clipPathUnits="userSpaceOnUse"
       id="clipPath168">
      <path
         d="M 0,0 H 851 V 604 H 0 Z"
         transform="matrix(1,0,0,-1,-347.43511,40.410203)"
         id="path168" />
    </clipPath>
    <clipPath
       clipPathUnits="userSpaceOnUse"
       id="clipPath150">
      <path
         d="M 0,0 H 851 V 604 H 0 Z"
         id="path150" />
    </clipPath>
    <clipPath
       clipPathUnits="userSpaceOnUse"
       id="clipPath152">
      <path
         d="M 0,0 H 851 V 604 H 0 Z"
         id="path152" />
    </clipPath>
    <clipPath
       clipPathUnits="userSpaceOnUse"
       id="clipPath154">
      <path
         d="M 0,0 H 851 V 604 H 0 Z"
         id="path154" />
    </clipPath>
  </defs>
  <g
     inkscape:label="Layer 1"
     inkscape:groupmode="layer"
     id="layer1"
     transform="translate(-127.73039,-130.14008)">
    <path
       id="path159"
       d="M 0,0 H 561.442 V 139.403 H 0 Z"
       style="fill:#ededed;fill-opacity:1;fill-rule:nonzero;stroke:none"
       transform="matrix(0.09418829,0,0,-0.21138413,127.73039,159.60766)"
       clip-path="url(#clipPath160)" />
    <path
       id="path167"
       d="M 5.2963453,-3.1861594 H 3.3041578 v 0.6328125 h 1.2304688 v 1.80468753 c -0.1757813,0.09375 -0.5273438,0.1640625 -1.0429688,0.1640625 -1.4179687,0 -2.34375,-0.90234373 -2.34375,-2.44921873 0,-1.5234375 0.9609375,-2.4375 2.4375,-2.4375 0.6210938,0 1.0195313,0.1171875 1.3476563,0.2578125 l 0.1875,-0.6328125 c -0.2578125,-0.1289063 -0.8085938,-0.28125 -1.5117188,-0.28125 -2.0390625,0 -3.28124999,1.3242187 -3.28124999,3.1289062 0,0.9492188 0.31640625,1.7578125 0.84374999,2.26171878 0.5976563,0.5625 1.3476563,0.796875 2.2617188,0.796875 0.8203125,0 1.5117187,-0.19921875 1.8632812,-0.328125 z M 11.073689,-3.4908469 H 8.7182203 v -1.921875 h 2.4960937 v -0.65625 H 7.9330641 V 0.00134063 H 11.34322 v -0.65625 H 8.7182203 V -2.8463156 h 2.3554687 z m 8.000977,3.49218753 h 0.761718 l -0.375,-6.07031253 h -1.007812 l -1.078125,2.9414063 c -0.269531,0.7617187 -0.480469,1.4296875 -0.632813,2.0390625 h -0.03516 C 16.55513,-1.7213156 16.355912,-2.3892844 16.098099,-3.1275656 l -1.03125,-2.9414063 H 14.070755 L 13.64888,0.00134063 h 0.738282 l 0.164062,-2.60156253 c 0.05859,-0.9140625 0.105469,-1.921875 0.117188,-2.6835937 h 0.02344 c 0.164063,0.7265625 0.410156,1.5 0.703125,2.3554687 l 0.972656,2.89453128 h 0.597657 l 1.066406,-2.94140628 c 0.304687,-0.8320312 0.5625,-1.59375 0.773437,-2.3085937 h 0.02344 c -0.01172,0.7617187 0.04687,1.7695312 0.09375,2.625 z m 6.544922,-3.49218753 h -2.355469 v -1.921875 h 2.496094 v -0.65625 h -3.28125 v 6.07031253 h 3.410156 v -0.65625 h -2.625 V -2.8463156 h 2.355469 z m 2.727539,-2.578125 v 6.07031253 h 0.785156 V -6.0689719 Z m 4.327148,6.07031253 V -2.5885031 c 0,-1.0078125 -0.01172,-1.734375 -0.05859,-2.5078125 h 0.02344 c 0.304687,0.65625 0.714844,1.3476562 1.136719,2.015625 l 1.921875,3.08203123 h 0.796875 V -6.0689719 h -0.738282 v 2.5429688 c 0,0.9492187 0.02344,1.6875 0.09375,2.4960937 h -0.02344 c -0.28125,-0.6210937 -0.632813,-1.2539062 -1.089844,-1.96875 l -1.945312,-3.0703125 h -0.855469 v 6.07031253 z m 6.319336,-0.29296875 c 0.328125,0.2109375 0.960937,0.38671875 1.546875,0.38671875 1.429687,0 2.132812,-0.80859375 2.132812,-1.74609373 0,-0.890625 -0.527343,-1.3945313 -1.546875,-1.78125 -0.84375,-0.328125 -1.207031,-0.609375 -1.207031,-1.171875 0,-0.421875 0.304688,-0.9140625 1.136719,-0.9140625 0.550781,0 0.960937,0.1875 1.148437,0.2929687 l 0.222657,-0.6445312 c -0.269532,-0.1523438 -0.726563,-0.2929688 -1.347657,-0.2929688 -1.171875,0 -1.957031,0.703125 -1.957031,1.640625 0,0.8554688 0.609375,1.3710938 1.605469,1.7226563 0.820312,0.3164062 1.136719,0.6445312 1.136719,1.2070312 0,0.60937503 -0.46875,1.03125003 -1.265625,1.03125003 -0.539063,0 -1.054688,-0.17578125 -1.40625,-0.38671875 z m 9.322266,-1.61718748 0.644531,1.91015623 h 0.832031 l -2.0625,-6.07031253 H 46.78072 l -2.0625,6.07031253 h 0.808594 l 0.632813,-1.91015623 z m -1.992188,-0.609375 0.597656,-1.7578125 c 0.117188,-0.3632813 0.210938,-0.7382813 0.304688,-1.0898438 h 0.01172 c 0.09375,0.3398438 0.1875,0.703125 0.316406,1.1015625 l 0.597656,1.7460938 z m 11.036133,2.51953123 h 0.761719 l -0.375,-6.07031253 h -1.007813 l -1.078125,2.9414063 c -0.269531,0.7617187 -0.480469,1.4296875 -0.632812,2.0390625 h -0.03516 c -0.152343,-0.6328125 -0.351562,-1.3007813 -0.609375,-2.0390625 l -1.03125,-2.9414063 h -0.996093 l -0.421875,6.07031253 h 0.738281 l 0.164062,-2.60156253 c 0.05859,-0.9140625 0.105469,-1.921875 0.117188,-2.6835937 h 0.02344 c 0.164063,0.7265625 0.410157,1.5 0.703125,2.3554687 l 0.972657,2.89453128 h 0.597656 l 1.066406,-2.94140628 c 0.304688,-0.8320312 0.5625,-1.59375 0.773438,-2.3085937 h 0.02344 c -0.01172,0.7617187 0.04687,1.7695312 0.09375,2.625 z m 12.026367,0 h 0.761719 l -0.375,-6.07031253 h -1.007813 l -1.078125,2.9414063 c -0.269531,0.7617187 -0.480468,1.4296875 -0.632812,2.0390625 h -0.03516 c -0.152344,-0.6328125 -0.351563,-1.3007813 -0.609375,-2.0390625 l -1.03125,-2.9414063 h -0.996094 l -0.421875,6.07031253 h 0.738281 l 0.164063,-2.60156253 c 0.05859,-0.9140625 0.105468,-1.921875 0.117187,-2.6835937 h 0.02344 c 0.164062,0.7265625 0.410156,1.5 0.703125,2.3554687 l 0.972656,2.89453128 h 0.597656 L 68.34322,-2.9752219 c 0.304688,-0.8320312 0.5625,-1.59375 0.773438,-2.3085937 h 0.02344 c -0.01172,0.7617187 0.04687,1.7695312 0.09375,2.625 z m 6.541992,-3.49218753 h -2.355468 v -1.921875 h 2.496093 v -0.65625 h -3.28125 v 6.07031253 h 3.410157 v -0.65625 h -2.625 V -2.8463156 h 2.355468 z m 2.727539,-2.578125 v 6.07031253 h 0.785157 V -2.8463156 h 2.941406 v 2.84765623 h 0.785156 V -6.0689719 h -0.785156 v 2.5429688 h -2.941406 v -2.5429688 z m 7.306641,6.07031253 h 0.785156 V -2.6236594 h 0.738281 c 0.714844,0.023437 1.03125,0.3398438 1.21875,1.171875 0.164063,0.76171878 0.304688,1.27734378 0.398438,1.45312503 h 0.820312 c -0.128906,-0.234375 -0.28125,-0.8203125 -0.46875,-1.66406253 -0.152343,-0.6328125 -0.433593,-1.0664062 -0.890625,-1.2304687 v -0.023437 c 0.632813,-0.2109375 1.136719,-0.75 1.136719,-1.546875 0,-0.46875 -0.175781,-0.8789063 -0.480469,-1.1484375 -0.375,-0.3398438 -0.914062,-0.4921875 -1.746093,-0.4921875 -0.539063,0 -1.113282,0.035156 -1.511719,0.1171875 z m 0.785156,-5.43750003 c 0.128906,-0.035156 0.398438,-0.070312 0.773438,-0.070312 0.832031,0.011719 1.394531,0.3515625 1.394531,1.1367188 0,0.6914062 -0.527344,1.1484375 -1.359375,1.1484375 h -0.808594 z m 8.844727,5.41406253 c 0.269531,0.046875 0.679687,0.08203125 1.21875,0.08203125 0.996094,0 1.675781,-0.1875 2.097656,-0.57421875 0.304688,-0.29296875 0.515625,-0.69140623 0.515625,-1.20703123 0,-0.9023438 -0.679687,-1.3828125 -1.253906,-1.5234375 v -0.023437 c 0.644531,-0.234375 1.03125,-0.75 1.03125,-1.3242188 0,-0.4804687 -0.199219,-0.84375 -0.503906,-1.078125 -0.386719,-0.3046875 -0.890625,-0.4335937 -1.675782,-0.4335937 -0.539062,0 -1.078125,0.046875 -1.429687,0.1171875 z M 96.3774,-5.4478781 c 0.128906,-0.035156 0.339844,-0.058594 0.691406,-0.058594 0.796875,0 1.335938,0.28125 1.335938,0.984375 0,0.5859375 -0.480469,1.0195313 -1.3125,1.0195313 H 96.3774 Z m 0,2.5429687 h 0.644531 c 0.855469,0 1.570313,0.3398438 1.570313,1.171875 0,0.87890628 -0.75,1.17187503 -1.558594,1.17187503 -0.28125,0 -0.503906,0 -0.65625,-0.0351563 z m 8.6748,-0.5859375 h -2.35546 v -1.921875 h 2.49609 v -0.65625 h -3.28125 v 6.07031253 h 3.41016 v -0.65625 h -2.625 V -2.8463156 h 2.35546 z m 4.62598,3.49218753 0.85547,-3.16406253 c 0.23438,-0.7734375 0.36328,-1.3710937 0.46875,-1.9804687 h 0.0234 c 0.082,0.6210937 0.21094,1.2070312 0.39844,1.9804687 l 0.76171,3.16406253 h 0.82032 l 1.72265,-6.07031253 h -0.80859 l -0.79688,3.0585938 c -0.1875,0.7617187 -0.36328,1.4414062 -0.49218,2.09765623 h -0.0117 c -0.0937,-0.63281253 -0.25781,-1.35937503 -0.42188,-2.07421873 l -0.73828,-3.0820313 h -0.82031 l -0.80859,3.0585938 c -0.21094,0.7851562 -0.39844,1.5117187 -0.49219,2.10937498 h -0.0234 c -0.10547,-0.58593748 -0.26953,-1.33593748 -0.44531,-2.09765628 l -0.72656,-3.0703125 h -0.82032 l 1.53516,6.07031253 z m 10.37695,-3.49218753 h -2.35546 v -1.921875 h 2.49609 v -0.65625 h -3.28125 v 6.07031253 h 3.41016 v -0.65625 h -2.625 V -2.8463156 h 2.35546 z m 7.34473,0.3046875 h -1.99219 v 0.6328125 h 1.23047 v 1.80468753 c -0.17578,0.09375 -0.52734,0.1640625 -1.04297,0.1640625 -1.41797,0 -2.34375,-0.90234373 -2.34375,-2.44921873 0,-1.5234375 0.96094,-2.4375 2.4375,-2.4375 0.6211,0 1.01953,0.1171875 1.34766,0.2578125 l 0.1875,-0.6328125 c -0.25781,-0.1289063 -0.80859,-0.28125 -1.51172,-0.28125 -2.03906,0 -3.28125,1.3242187 -3.28125,3.1289062 0,0.9492188 0.31641,1.7578125 0.84375,2.26171878 0.59766,0.5625 1.34766,0.796875 2.26172,0.796875 0.82031,0 1.51172,-0.19921875 1.86328,-0.328125 z m 5.77734,-0.3046875 h -2.35546 v -1.921875 h 2.49609 v -0.65625 h -3.28125 v 6.07031253 h 3.41016 v -0.65625 h -2.625 V -2.8463156 h 2.35546 z m 3.46583,3.49218753 V -2.5885031 c 0,-1.0078125 -0.0117,-1.734375 -0.0586,-2.5078125 h 0.0234 c 0.30469,0.65625 0.71484,1.3476562 1.13672,2.015625 l 1.92187,3.08203123 h 0.79688 V -6.0689719 h -0.73828 v 2.5429688 c 0,0.9492187 0.0234,1.6875 0.0937,2.4960937 h -0.0234 c -0.28125,-0.6210937 -0.63281,-1.2539062 -1.08984,-1.96875 l -1.94532,-3.0703125 h -0.85547 v 6.07031253 z m 7.28027,-1.74609373 0.1289,-4.3242188 h -0.86718 l 0.1289,4.3242188 z m -0.30469,1.83984373 c 0.32813,0 0.53906,-0.234375 0.53906,-0.55078125 0,-0.328125 -0.21093,-0.56249998 -0.53906,-0.56249998 -0.30469,0 -0.52734,0.23437498 -0.52734,0.56249998 0,0.31640625 0.21093,0.55078125 0.52734,0.55078125 z m 0,0"
       style="fill:#231f20;fill-opacity:1;fill-rule:nonzero;stroke:none"
       aria-label="GEMEINSAM MEHR BEWEGEN!"
       transform="matrix(0.35277776,0,0,0.35277776,128.68543,158.74746)"
       clip-path="url(#clipPath168)" />
    <g
       id="g1"
       transform="translate(1.8882561,-36.550902)">
      <path
         id="path149"
         d="m 606.8086,394.2173 c 0,-23.883 -19.362,-43.246 -43.246,-43.246 -23.885,0 -43.246,19.363 -43.246,43.246 0,23.885 19.361,43.248 43.246,43.248 23.884,0 43.246,-19.363 43.246,-43.248"
         style="fill:#486989;fill-opacity:1;fill-rule:nonzero;stroke:none"
         transform="matrix(0.26764771,0,0,-0.26764771,2.9681204,285.30338)"
         clip-path="url(#clipPath150)" />
      <path
         id="path151"
         d="m 571.665,380.7427 c 0,1.973 1.294,4.301 3.071,4.301 0.647,0 1.213,-0.537 1.779,-1.254 2.1,-2.508 4.735,-4.031 6.998,-4.031 1.698,0 3.783,1.826 3.783,3.709 0,2.957 -3.362,6.091 -4.898,8.242 -2.263,3.224 -4.384,5.432 -4.384,7.672 0,3.763 1.228,6.326 4.137,9.103 2.263,2.151 5.173,3.404 7.275,3.404 3.718,0 6.466,-3.046 6.466,-6.181 0,-2.42 -1.779,-3.764 -2.587,-3.764 -0.728,0 -1.293,0.36 -1.778,1.076 -2.263,2.868 -2.795,4.803 -4.897,4.803 -1.778,0 -2.855,-1.98 -2.855,-3.234 0,-2.957 3.004,-5.209 4.459,-7.36 2.344,-3.494 4.494,-6.003 4.331,-9.497 0,-3.046 -1.454,-6.45 -4.526,-9.227 -2.424,-2.241 -5.657,-3.584 -9.052,-3.584 -3.395,0 -7.322,2.687 -7.322,5.822"
         style="fill:#c7ceec;fill-opacity:1;fill-rule:nonzero;stroke:none"
         transform="matrix(0.26764771,0,0,-0.26764771,2.9681204,285.30338)"
         clip-path="url(#clipPath152)" />
      <path
         id="path153"
         d="m 594.0176,436.9966 c -19.078,0.029 -25.202,-12.223 -26.625,-17.256 -0.731,-2.198 -1.379,-5.067 -1.379,-5.067 -0.225,-0.921 -0.463,-1.943 -0.73,-3.105 h -14.661 c 1.518,6.809 1.942,7.994 4.219,13.908 1.448,3.762 3.105,6.002 4.623,6.002 0.568,0 1.052,-0.087 2.09,-1.273 0,0 2.52,-3.928 4.965,-2.816 2.643,1.201 1.223,4.179 -0.122,5.695 -0.186,0.264 -0.446,0.525 -0.81,0.795 -1.125,0.832 -2.515,1.344 -4.098,1.344 -5.382,0 -10.339,-3.918 -13.064,-10.791 -2.504,-6.315 -2.443,-5.965 -4.031,-12.864 h -6.14 c -0.966,-0.537 -1.517,-2.687 -0.828,-3.942 h 6.141 c -1.856,-8.482 -3.671,-17.183 -5.318,-25.087 -3.737,-14.58 -11.267,-22.662 -23.336,-22.662 -7.621,0 -14.388,4.514 -18.64,10.168 l -0.031,-0.01 -0.342,0.473 c -0.57,0.834 -1.367,1.974 -2.506,1.707 -1.139,-0.266 -0.304,-2.201 -0.304,-2.201 0.183,-0.288 0.366,-0.555 0.55,-0.811 l -0.032,-0.01 c 4.983,-7.189 12.768,-12.092 21.92,-12.092 14.308,0 24.217,8.479 28.684,23.918 2.479,9.869 3.234,16.338 5.582,26.607 h 14.66 c -3.449,-15.769 -5.509,-27.48 -7.814,-38.239 -1.6,-7.463 -5.896,-8.104 -6.932,-8.104 -1.172,0 -4,0.479 -6.057,2.934 0,0 -1.372,1.877 -3.322,0.974 -0.63,-0.291 -1.007,-0.765 -1.258,-1.232 -0.07,-0.117 -0.212,-0.502 -0.226,-0.559 -0.322,-1.603 0.039,-2.541 0.039,-2.541 0.867,-2.42 4.362,-4.045 7.222,-4.045 4.277,0 9.041,0.629 13.569,7.198 1.899,2.754 2.297,3.437 4.022,10.425 2.138,8.78 4.691,24.23 7.037,33.189 h 8.831 c 1.104,0.717 1.38,2.866 0.828,3.942 h -8.831 c 0.442,1.988 0.887,3.793 1.348,5.504 3.048,10.949 10.355,16.307 22.777,16.635 12.87,0.341 23.31,-10.721 23.31,-23.596 0,-8.951 -5.047,-16.719 -12.45,-20.625 -0.323,-2.976 -0.949,-5.861 -1.845,-8.625 10.696,4.252 18.257,14.696 18.257,26.906 0,15.985 -12.958,29.204 -28.942,29.229"
         style="fill:#c7ceec;fill-opacity:1;fill-rule:nonzero;stroke:none"
         transform="matrix(0.26764771,0,0,-0.26764771,2.9681204,285.30338)"
         clip-path="url(#clipPath154)" />
    </g>
  </g>
</svg>
