<?xml version="1.0" encoding="UTF-8"?>
<!-- Created with Inkscape (http://www.inkscape.org/) -->
<svg width="52.881mm" height="29.468mm" version="1.1" viewBox="0 0 52.881 29.468" xmlns="http://www.w3.org/2000/svg">
 <defs>
  <clipPath id="clipPath160">
   <path d="m0 0h851v604h-851z"/>
  </clipPath>
  <clipPath id="clipPath168">
   <path transform="matrix(1 0 0 -1 -347.44 40.41)" d="m0 0h851v604h-851z"/>
  </clipPath>
  <clipPath id="clipPath150">
   <path d="m0 0h851v604h-851z"/>
  </clipPath>
  <clipPath id="clipPath152">
   <path d="m0 0h851v604h-851z"/>
  </clipPath>
  <clipPath id="clipPath154">
   <path d="m0 0h851v604h-851z"/>
  </clipPath>
 </defs>
 <g transform="translate(-127.73 -130.14)">
  <path transform="matrix(.094188 0 0 -.21138 127.73 159.61)" d="m0 0h561.44v139.4h-561.44z" clip-path="url(#clipPath160)" fill="#ededed"/>
  <path transform="matrix(.35278 0 0 .35278 128.69 158.75)" d="m5.2963-3.1862h-1.9922v0.63281h1.2305v1.8047c-0.17578 0.09375-0.52734 0.16406-1.043 0.16406-1.418 0-2.3438-0.90234-2.3438-2.4492 0-1.5234 0.96094-2.4375 2.4375-2.4375 0.62109 0 1.0195 0.11719 1.3477 0.25781l0.1875-0.63281c-0.25781-0.12891-0.80859-0.28125-1.5117-0.28125-2.0391 0-3.2812 1.3242-3.2812 3.1289 0 0.94922 0.31641 1.7578 0.84375 2.2617 0.59766 0.5625 1.3477 0.79688 2.2617 0.79688 0.82031 0 1.5117-0.19922 1.8633-0.32812zm5.7773-0.30469h-2.3555v-1.9219h2.4961v-0.65625h-3.2812v6.0703h3.4102v-0.65625h-2.625v-2.1914h2.3555zm8.001 3.4922h0.76172l-0.375-6.0703h-1.0078l-1.0781 2.9414c-0.26953 0.76172-0.48047 1.4297-0.63281 2.0391h-0.03516c-0.15234-0.63281-0.35156-1.3008-0.60938-2.0391l-1.0312-2.9414h-0.99609l-0.42188 6.0703h0.73828l0.16406-2.6016c0.05859-0.91406 0.10547-1.9219 0.11719-2.6836h0.02344c0.16406 0.72656 0.41016 1.5 0.70312 2.3555l0.97266 2.8945h0.59766l1.0664-2.9414c0.30469-0.83203 0.5625-1.5938 0.77344-2.3086h0.02344c-0.01172 0.76172 0.04687 1.7695 0.09375 2.625zm6.5449-3.4922h-2.3555v-1.9219h2.4961v-0.65625h-3.2812v6.0703h3.4102v-0.65625h-2.625v-2.1914h2.3555zm2.7275-2.5781v6.0703h0.78516v-6.0703zm4.3271 6.0703v-2.5898c0-1.0078-0.01172-1.7344-0.05859-2.5078h0.02344c0.30469 0.65625 0.71484 1.3477 1.1367 2.0156l1.9219 3.082h0.79688v-6.0703h-0.73828v2.543c0 0.94922 0.02344 1.6875 0.09375 2.4961h-0.02344c-0.28125-0.62109-0.63281-1.2539-1.0898-1.9688l-1.9453-3.0703h-0.85547v6.0703zm6.3193-0.29297c0.32812 0.21094 0.96094 0.38672 1.5469 0.38672 1.4297 0 2.1328-0.80859 2.1328-1.7461 0-0.89062-0.52734-1.3945-1.5469-1.7812-0.84375-0.32812-1.207-0.60938-1.207-1.1719 0-0.42188 0.30469-0.91406 1.1367-0.91406 0.55078 0 0.96094 0.1875 1.1484 0.29297l0.22266-0.64453c-0.26953-0.15234-0.72656-0.29297-1.3477-0.29297-1.1719 0-1.957 0.70312-1.957 1.6406 0 0.85547 0.60938 1.3711 1.6055 1.7227 0.82031 0.31641 1.1367 0.64453 1.1367 1.207 0 0.60938-0.46875 1.0313-1.2656 1.0313-0.53906 0-1.0547-0.17578-1.4062-0.38672zm9.3223-1.6172 0.64453 1.9102h0.83203l-2.0625-6.0703h-0.94922l-2.0625 6.0703h0.80859l0.63281-1.9102zm-1.9922-0.60938 0.59766-1.7578c0.11719-0.36328 0.21094-0.73828 0.30469-1.0898h0.01172c0.09375 0.33984 0.1875 0.70312 0.31641 1.1016l0.59766 1.7461zm11.036 2.5195h0.76172l-0.375-6.0703h-1.0078l-1.0781 2.9414c-0.26953 0.76172-0.48047 1.4297-0.63281 2.0391h-0.03516c-0.15234-0.63281-0.35156-1.3008-0.60938-2.0391l-1.0312-2.9414h-0.99609l-0.42188 6.0703h0.73828l0.16406-2.6016c0.05859-0.91406 0.10547-1.9219 0.11719-2.6836h0.02344c0.16406 0.72656 0.41016 1.5 0.70312 2.3555l0.97266 2.8945h0.59766l1.0664-2.9414c0.30469-0.83203 0.5625-1.5938 0.77344-2.3086h0.02344c-0.01172 0.76172 0.04687 1.7695 0.09375 2.625zm12.026 0h0.76172l-0.375-6.0703h-1.0078l-1.0781 2.9414c-0.26953 0.76172-0.48047 1.4297-0.63281 2.0391h-0.03516c-0.15234-0.63281-0.35156-1.3008-0.60938-2.0391l-1.0312-2.9414h-0.99609l-0.42188 6.0703h0.73828l0.16406-2.6016c0.05859-0.91406 0.10547-1.9219 0.11719-2.6836h0.02344c0.16406 0.72656 0.41016 1.5 0.70312 2.3555l0.97266 2.8945h0.59766l1.0664-2.9414c0.30469-0.83203 0.5625-1.5938 0.77344-2.3086h0.02344c-0.01172 0.76172 0.04687 1.7695 0.09375 2.625zm6.542-3.4922h-2.3555v-1.9219h2.4961v-0.65625h-3.2812v6.0703h3.4102v-0.65625h-2.625v-2.1914h2.3555zm2.7275-2.5781v6.0703h0.78516v-2.8477h2.9414v2.8477h0.78516v-6.0703h-0.78516v2.543h-2.9414v-2.543zm7.3066 6.0703h0.78516v-2.625h0.73828c0.71484 0.023437 1.0312 0.33984 1.2188 1.1719 0.16406 0.76172 0.30469 1.2773 0.39844 1.4531h0.82031c-0.12891-0.23438-0.28125-0.82031-0.46875-1.6641-0.15234-0.63281-0.43359-1.0664-0.89062-1.2305v-0.023437c0.63281-0.21094 1.1367-0.75 1.1367-1.5469 0-0.46875-0.17578-0.87891-0.48047-1.1484-0.375-0.33984-0.91406-0.49219-1.7461-0.49219-0.53906 0-1.1133 0.035156-1.5117 0.11719zm0.78516-5.4375c0.12891-0.035156 0.39844-0.070312 0.77344-0.070312 0.83203 0.011719 1.3945 0.35156 1.3945 1.1367 0 0.69141-0.52734 1.1484-1.3594 1.1484h-0.80859zm8.8447 5.4141c0.26953 0.046875 0.67969 0.082031 1.2188 0.082031 0.99609 0 1.6758-0.1875 2.0977-0.57422 0.30469-0.29297 0.51562-0.69141 0.51562-1.207 0-0.90234-0.67969-1.3828-1.2539-1.5234v-0.023437c0.64453-0.23438 1.0312-0.75 1.0312-1.3242 0-0.48047-0.19922-0.84375-0.50391-1.0781-0.38672-0.30469-0.89062-0.43359-1.6758-0.43359-0.53906 0-1.0781 0.046875-1.4297 0.11719zm0.78516-5.4258c0.12891-0.035156 0.33984-0.058594 0.69141-0.058594 0.79688 0 1.3359 0.28125 1.3359 0.98438 0 0.58594-0.48047 1.0195-1.3125 1.0195h-0.71484zm0 2.543h0.64453c0.85547 0 1.5703 0.33984 1.5703 1.1719 0 0.87891-0.75 1.1719-1.5586 1.1719-0.28125 0-0.50391 0-0.65625-0.035156zm8.6748-0.58594h-2.3555v-1.9219h2.4961v-0.65625h-3.2812v6.0703h3.4102v-0.65625h-2.625v-2.1914h2.3555zm4.626 3.4922 0.85547-3.1641c0.23438-0.77344 0.36328-1.3711 0.46875-1.9805h0.0234c0.082 0.62109 0.21094 1.207 0.39844 1.9805l0.76171 3.1641h0.82032l1.7226-6.0703h-0.80859l-0.79688 3.0586c-0.1875 0.76172-0.36328 1.4414-0.49218 2.0977h-0.0117c-0.0937-0.63281-0.25781-1.3594-0.42188-2.0742l-0.73828-3.082h-0.82031l-0.80859 3.0586c-0.21094 0.78516-0.39844 1.5117-0.49219 2.1094h-0.0234c-0.10547-0.58594-0.26953-1.3359-0.44531-2.0977l-0.72656-3.0703h-0.82032l1.5352 6.0703zm10.377-3.4922h-2.3555v-1.9219h2.4961v-0.65625h-3.2812v6.0703h3.4102v-0.65625h-2.625v-2.1914h2.3555zm7.3447 0.30469h-1.9922v0.63281h1.2305v1.8047c-0.17578 0.09375-0.52734 0.16406-1.043 0.16406-1.418 0-2.3438-0.90234-2.3438-2.4492 0-1.5234 0.96094-2.4375 2.4375-2.4375 0.6211 0 1.0195 0.11719 1.3477 0.25781l0.1875-0.63281c-0.25781-0.12891-0.80859-0.28125-1.5117-0.28125-2.0391 0-3.2812 1.3242-3.2812 3.1289 0 0.94922 0.31641 1.7578 0.84375 2.2617 0.59766 0.5625 1.3477 0.79688 2.2617 0.79688 0.82031 0 1.5117-0.19922 1.8633-0.32812zm5.7773-0.30469h-2.3555v-1.9219h2.4961v-0.65625h-3.2812v6.0703h3.4102v-0.65625h-2.625v-2.1914h2.3555zm3.4658 3.4922v-2.5898c0-1.0078-0.0117-1.7344-0.0586-2.5078h0.0234c0.30469 0.65625 0.71484 1.3477 1.1367 2.0156l1.9219 3.082h0.79688v-6.0703h-0.73828v2.543c0 0.94922 0.0234 1.6875 0.0937 2.4961h-0.0234c-0.28125-0.62109-0.63281-1.2539-1.0898-1.9688l-1.9453-3.0703h-0.85547v6.0703zm7.2803-1.7461 0.1289-4.3242h-0.86718l0.1289 4.3242zm-0.30469 1.8398c0.32813 0 0.53906-0.23438 0.53906-0.55078 0-0.32812-0.21093-0.5625-0.53906-0.5625-0.30469 0-0.52734 0.23437-0.52734 0.5625 0 0.31641 0.21093 0.55078 0.52734 0.55078z" clip-path="url(#clipPath168)" fill="#231f20" aria-label="GEMEINSAM MEHR BEWEGEN!"/>
  <g transform="translate(1.8883 -36.551)">
   <path transform="matrix(.26765 0 0 -.26765 2.9681 285.3)" d="m606.81 394.22c0-23.883-19.362-43.246-43.246-43.246-23.885 0-43.246 19.363-43.246 43.246 0 23.885 19.361 43.248 43.246 43.248 23.884 0 43.246-19.363 43.246-43.248" clip-path="url(#clipPath150)" fill="#486989"/>
   <path transform="matrix(.26765 0 0 -.26765 2.9681 285.3)" d="m571.66 380.74c0 1.973 1.294 4.301 3.071 4.301 0.647 0 1.213-0.537 1.779-1.254 2.1-2.508 4.735-4.031 6.998-4.031 1.698 0 3.783 1.826 3.783 3.709 0 2.957-3.362 6.091-4.898 8.242-2.263 3.224-4.384 5.432-4.384 7.672 0 3.763 1.228 6.326 4.137 9.103 2.263 2.151 5.173 3.404 7.275 3.404 3.718 0 6.466-3.046 6.466-6.181 0-2.42-1.779-3.764-2.587-3.764-0.728 0-1.293 0.36-1.778 1.076-2.263 2.868-2.795 4.803-4.897 4.803-1.778 0-2.855-1.98-2.855-3.234 0-2.957 3.004-5.209 4.459-7.36 2.344-3.494 4.494-6.003 4.331-9.497 0-3.046-1.454-6.45-4.526-9.227-2.424-2.241-5.657-3.584-9.052-3.584s-7.322 2.687-7.322 5.822" clip-path="url(#clipPath152)" fill="#c7ceec"/>
   <path transform="matrix(.26765 0 0 -.26765 2.9681 285.3)" d="m594.02 437c-19.078 0.029-25.202-12.223-26.625-17.256-0.731-2.198-1.379-5.067-1.379-5.067-0.225-0.921-0.463-1.943-0.73-3.105h-14.661c1.518 6.809 1.942 7.994 4.219 13.908 1.448 3.762 3.105 6.002 4.623 6.002 0.568 0 1.052-0.087 2.09-1.273 0 0 2.52-3.928 4.965-2.816 2.643 1.201 1.223 4.179-0.122 5.695-0.186 0.264-0.446 0.525-0.81 0.795-1.125 0.832-2.515 1.344-4.098 1.344-5.382 0-10.339-3.918-13.064-10.791-2.504-6.315-2.443-5.965-4.031-12.864h-6.14c-0.966-0.537-1.517-2.687-0.828-3.942h6.141c-1.856-8.482-3.671-17.183-5.318-25.087-3.737-14.58-11.267-22.662-23.336-22.662-7.621 0-14.388 4.514-18.64 10.168l-0.031-0.01-0.342 0.473c-0.57 0.834-1.367 1.974-2.506 1.707-1.139-0.266-0.304-2.201-0.304-2.201 0.183-0.288 0.366-0.555 0.55-0.811l-0.032-0.01c4.983-7.189 12.768-12.092 21.92-12.092 14.308 0 24.217 8.479 28.684 23.918 2.479 9.869 3.234 16.338 5.582 26.607h14.66c-3.449-15.769-5.509-27.48-7.814-38.239-1.6-7.463-5.896-8.104-6.932-8.104-1.172 0-4 0.479-6.057 2.934 0 0-1.372 1.877-3.322 0.974-0.63-0.291-1.007-0.765-1.258-1.232-0.07-0.117-0.212-0.502-0.226-0.559-0.322-1.603 0.039-2.541 0.039-2.541 0.867-2.42 4.362-4.045 7.222-4.045 4.277 0 9.041 0.629 13.569 7.198 1.899 2.754 2.297 3.437 4.022 10.425 2.138 8.78 4.691 24.23 7.037 33.189h8.831c1.104 0.717 1.38 2.866 0.828 3.942h-8.831c0.442 1.988 0.887 3.793 1.348 5.504 3.048 10.949 10.355 16.307 22.777 16.635 12.87 0.341 23.31-10.721 23.31-23.596 0-8.951-5.047-16.719-12.45-20.625-0.323-2.976-0.949-5.861-1.845-8.625 10.696 4.252 18.257 14.696 18.257 26.906 0 15.985-12.958 29.204-28.942 29.229" clip-path="url(#clipPath154)" fill="#c7ceec"/>
  </g>
 </g>
</svg>
