<?xml version="1.0" encoding="UTF-8"?>
<!-- Created with Inkscape (http://www.inkscape.org/) -->
<svg width="45.919mm" height="30.513mm" version="1.1" viewBox="0 0 45.919 30.513" xmlns="http://www.w3.org/2000/svg">
 <defs>
  <clipPath id="clipPath150">
   <path d="m0 0h851v604h-851z"/>
  </clipPath>
  <clipPath id="clipPath152">
   <path d="m0 0h851v604h-851z"/>
  </clipPath>
  <clipPath id="clipPath154">
   <path d="m0 0h851v604h-851z"/>
  </clipPath>
 </defs>
 <g transform="translate(-59.531 -121.71)">
  <path transform="matrix(.35278 0 0 -.35278 -114.32 276.04)" d="m606.81 394.22c0-23.883-19.362-43.246-43.246-43.246-23.885 0-43.246 19.363-43.246 43.246 0 23.885 19.361 43.248 43.246 43.248 23.884 0 43.246-19.363 43.246-43.248" clip-path="url(#clipPath150)" fill="#486989"/>
  <path transform="matrix(.35278 0 0 -.35278 -114.32 276.04)" d="m571.66 380.74c0 1.973 1.294 4.301 3.071 4.301 0.647 0 1.213-0.537 1.779-1.254 2.1-2.508 4.735-4.031 6.998-4.031 1.698 0 3.783 1.826 3.783 3.709 0 2.957-3.362 6.091-4.898 8.242-2.263 3.224-4.384 5.432-4.384 7.672 0 3.763 1.228 6.326 4.137 9.103 2.263 2.151 5.173 3.404 7.275 3.404 3.718 0 6.466-3.046 6.466-6.181 0-2.42-1.779-3.764-2.587-3.764-0.728 0-1.293 0.36-1.778 1.076-2.263 2.868-2.795 4.803-4.897 4.803-1.778 0-2.855-1.98-2.855-3.234 0-2.957 3.004-5.209 4.459-7.36 2.344-3.494 4.494-6.003 4.331-9.497 0-3.046-1.454-6.45-4.526-9.227-2.424-2.241-5.657-3.584-9.052-3.584s-7.322 2.687-7.322 5.822" clip-path="url(#clipPath152)" fill="#c7ceec"/>
  <path transform="matrix(.35278 0 0 -.35278 -114.32 276.04)" d="m594.02 437c-19.078 0.029-25.202-12.223-26.625-17.256-0.731-2.198-1.379-5.067-1.379-5.067-0.225-0.921-0.463-1.943-0.73-3.105h-14.661c1.518 6.809 1.942 7.994 4.219 13.908 1.448 3.762 3.105 6.002 4.623 6.002 0.568 0 1.052-0.087 2.09-1.273 0 0 2.52-3.928 4.965-2.816 2.643 1.201 1.223 4.179-0.122 5.695-0.186 0.264-0.446 0.525-0.81 0.795-1.125 0.832-2.515 1.344-4.098 1.344-5.382 0-10.339-3.918-13.064-10.791-2.504-6.315-2.443-5.965-4.031-12.864h-6.14c-0.966-0.537-1.517-2.687-0.828-3.942h6.141c-1.856-8.482-3.671-17.183-5.318-25.087-3.737-14.58-11.267-22.662-23.336-22.662-7.621 0-14.388 4.514-18.64 10.168l-0.031-0.01-0.342 0.473c-0.57 0.834-1.367 1.974-2.506 1.707-1.139-0.266-0.304-2.201-0.304-2.201 0.183-0.288 0.366-0.555 0.55-0.811l-0.032-0.01c4.983-7.189 12.768-12.092 21.92-12.092 14.308 0 24.217 8.479 28.684 23.918 2.479 9.869 3.234 16.338 5.582 26.607h14.66c-3.449-15.769-5.509-27.48-7.814-38.239-1.6-7.463-5.896-8.104-6.932-8.104-1.172 0-4 0.479-6.057 2.934 0 0-1.372 1.877-3.322 0.974-0.63-0.291-1.007-0.765-1.258-1.232-0.07-0.117-0.212-0.502-0.226-0.559-0.322-1.603 0.039-2.541 0.039-2.541 0.867-2.42 4.362-4.045 7.222-4.045 4.277 0 9.041 0.629 13.569 7.198 1.899 2.754 2.297 3.437 4.022 10.425 2.138 8.78 4.691 24.23 7.037 33.189h8.831c1.104 0.717 1.38 2.866 0.828 3.942h-8.831c0.442 1.988 0.887 3.793 1.348 5.504 3.048 10.949 10.355 16.307 22.777 16.635 12.87 0.341 23.31-10.721 23.31-23.596 0-8.951-5.047-16.719-12.45-20.625-0.323-2.976-0.949-5.861-1.845-8.625 10.696 4.252 18.257 14.696 18.257 26.906 0 15.985-12.958 29.204-28.942 29.229" clip-path="url(#clipPath154)" fill="#c7ceec"/>
 </g>
</svg>
